<?xml version="1.0" encoding="UTF-8"?>
<svg xmlns="http://www.w3.org/2000/svg" xmlns:xlink="http://www.w3.org/1999/xlink" width="24px" height="24px" viewBox="0 0 24 24" version="1.1">
<g id="surface1">
<path style=" stroke:none;fill-rule:nonzero;fill:rgb(0.392157%,0.392157%,0.392157%);fill-opacity:1;" d="M 13.800781 4.679688 C 14.195312 5.074219 14.15625 5.539062 14.171875 6.078125 C 14.171875 6.226562 14.167969 6.371094 14.167969 6.523438 C 14.167969 6.675781 14.164062 6.824219 14.164062 6.976562 C 14.164062 7.089844 14.160156 7.203125 14.160156 7.320312 C 14.476562 7.359375 14.792969 7.398438 15.121094 7.441406 C 15.277344 7.164062 15.4375 6.886719 15.601562 6.601562 C 15.777344 6.660156 15.777344 6.660156 15.960938 6.71875 C 15.945312 6.796875 15.933594 6.875 15.917969 6.957031 C 15.882812 7.308594 15.875 7.574219 15.960938 7.921875 C 16.347656 8.277344 16.855469 8.640625 17.398438 8.640625 C 17.566406 8.445312 17.726562 8.246094 17.878906 8.039062 C 18 8.078125 18.117188 8.121094 18.238281 8.160156 C 18.21875 8.28125 18.21875 8.28125 18.195312 8.40625 C 18.148438 8.730469 18.113281 9.035156 18.121094 9.359375 C 18.332031 9.664062 18.332031 9.664062 18.601562 9.839844 C 18.601562 9.917969 18.601562 10 18.601562 10.078125 C 18.957031 10.199219 18.957031 10.199219 19.320312 10.320312 C 19.617188 10.023438 19.617188 10.023438 19.921875 9.71875 C 20.039062 9.757812 20.15625 9.800781 20.28125 9.839844 C 20.199219 10.277344 20.121094 10.710938 20.039062 11.160156 C 20.65625 11.4375 20.65625 11.4375 21.238281 11.28125 C 21.464844 10.925781 21.464844 10.925781 21.601562 10.558594 C 21.679688 10.558594 21.757812 10.558594 21.839844 10.558594 C 22.03125 11.039062 21.875 11.40625 21.71875 11.878906 C 21.855469 11.859375 21.992188 11.835938 22.132812 11.8125 C 22.273438 11.796875 22.414062 11.777344 22.558594 11.761719 C 22.679688 11.878906 22.679688 11.878906 22.761719 12.316406 C 22.761719 12.574219 22.761719 12.574219 22.679688 12.839844 C 22.164062 13.347656 21.554688 13.671875 20.878906 13.921875 C 20.921875 14.003906 20.964844 14.085938 21.011719 14.167969 C 21.066406 14.277344 21.121094 14.386719 21.179688 14.496094 C 21.234375 14.605469 21.292969 14.710938 21.347656 14.824219 C 21.480469 15.121094 21.480469 15.121094 21.480469 15.480469 C 20.953125 15.417969 20.660156 15.097656 20.28125 14.761719 C 19.800781 14.972656 19.332031 15.230469 19.078125 15.703125 C 19.0625 15.984375 19.0625 15.984375 19.253906 16.304688 C 19.453125 16.710938 19.472656 16.953125 19.441406 17.398438 C 19.027344 17.214844 18.707031 16.96875 18.359375 16.679688 C 17.941406 16.867188 17.605469 17.074219 17.28125 17.398438 C 17.234375 17.792969 17.234375 17.792969 17.300781 18.210938 C 17.320312 18.351562 17.335938 18.492188 17.351562 18.636719 C 17.367188 18.742188 17.382812 18.851562 17.398438 18.960938 C 17.28125 19 17.164062 19.039062 17.039062 19.078125 C 16.84375 18.761719 16.644531 18.445312 16.441406 18.121094 C 16.203125 18.199219 15.964844 18.277344 15.71875 18.359375 C 15.710938 18.4375 15.707031 18.511719 15.699219 18.59375 C 15.6875 18.691406 15.679688 18.789062 15.667969 18.890625 C 15.65625 18.992188 15.648438 19.089844 15.636719 19.191406 C 15.601562 19.441406 15.601562 19.441406 15.480469 19.558594 C 15.179688 19.574219 15.179688 19.574219 14.878906 19.558594 C 14.839844 19.519531 14.800781 19.480469 14.761719 19.441406 C 14.761719 19.203125 14.761719 18.964844 14.761719 18.71875 C 13.058594 18.71875 11.355469 18.71875 9.601562 18.71875 C 9.601562 18.957031 9.601562 19.195312 9.601562 19.441406 C 9.558594 19.519531 9.519531 19.597656 9.480469 19.679688 C 9.28125 19.679688 9.085938 19.679688 8.878906 19.679688 C 8.839844 19.285156 8.800781 18.886719 8.761719 18.480469 C 8.484375 18.441406 8.207031 18.402344 7.921875 18.359375 C 7.761719 18.675781 7.601562 18.992188 7.441406 19.320312 C 7.320312 19.320312 7.203125 19.320312 7.078125 19.320312 C 7.121094 18.84375 7.160156 18.371094 7.199219 17.878906 C 6.84375 17.640625 6.488281 17.40625 6.121094 17.160156 C 5.632812 17.402344 5.484375 17.585938 5.160156 18 C 5.082031 18 5 18 4.921875 18 C 4.882812 17.367188 4.960938 16.988281 5.28125 16.441406 C 5.148438 16.277344 5.015625 16.121094 4.882812 15.960938 C 4.808594 15.871094 4.734375 15.78125 4.660156 15.691406 C 4.445312 15.4375 4.445312 15.4375 4.078125 15.480469 C 3.863281 15.636719 3.863281 15.636719 3.652344 15.839844 C 3.265625 16.199219 3.265625 16.199219 3 16.199219 C 2.949219 15.535156 3.132812 15.011719 3.359375 14.398438 C 3.292969 14.347656 3.230469 14.296875 3.160156 14.246094 C 2.972656 14.097656 2.78125 13.949219 2.589844 13.800781 C 2.386719 13.644531 2.179688 13.488281 1.972656 13.339844 C 1.875 13.269531 1.777344 13.199219 1.679688 13.125 C 1.546875 13.03125 1.546875 13.03125 1.410156 12.933594 C 1.152344 12.671875 1.121094 12.480469 1.078125 12.121094 C 1.152344 12.097656 1.226562 12.074219 1.300781 12.050781 C 1.441406 12.003906 1.441406 12.003906 1.589844 11.953125 C 1.683594 11.925781 1.78125 11.894531 1.875 11.863281 C 2.144531 11.765625 2.390625 11.652344 2.640625 11.519531 C 2.601562 11.480469 2.5625 11.441406 2.519531 11.398438 C 2.515625 11.121094 2.515625 10.839844 2.519531 10.558594 C 2.597656 10.558594 2.679688 10.558594 2.761719 10.558594 C 2.925781 10.753906 3.085938 10.957031 3.238281 11.160156 C 3.757812 10.988281 4.082031 10.734375 4.476562 10.363281 C 4.582031 10.265625 4.6875 10.167969 4.796875 10.066406 C 4.878906 9.992188 4.957031 9.917969 5.039062 9.839844 C 4.976562 9.714844 4.917969 9.585938 4.851562 9.457031 C 4.679688 9.0625 4.660156 8.820312 4.800781 8.398438 C 5.117188 8.710938 5.394531 8.988281 5.640625 9.359375 C 6.214844 9.164062 6.695312 8.847656 7.199219 8.519531 C 7.171875 8.394531 7.171875 8.394531 7.144531 8.265625 C 7.121094 8.15625 7.097656 8.046875 7.074219 7.933594 C 7.035156 7.773438 7.035156 7.773438 7 7.605469 C 6.960938 7.320312 6.960938 7.320312 7.078125 7.078125 C 7.5625 7.242188 7.652344 7.503906 7.921875 7.921875 C 8.160156 8.074219 8.160156 8.074219 8.441406 7.96875 C 8.792969 7.820312 9.066406 7.6875 9.359375 7.441406 C 9.5 6.996094 9.507812 6.582031 9.480469 6.121094 C 9.839844 6.238281 9.839844 6.238281 9.953125 6.460938 C 9.984375 6.550781 10.011719 6.636719 10.042969 6.726562 C 10.074219 6.816406 10.101562 6.902344 10.132812 6.996094 C 10.15625 7.0625 10.175781 7.128906 10.199219 7.199219 C 10.433594 7.171875 10.433594 7.171875 10.671875 7.140625 C 11.238281 7.078125 11.789062 7.070312 12.359375 7.078125 C 12.355469 6.910156 12.355469 6.910156 12.347656 6.738281 C 12.34375 6.589844 12.339844 6.4375 12.335938 6.285156 C 12.332031 6.0625 12.332031 6.0625 12.324219 5.835938 C 12.363281 5.363281 12.472656 5.082031 12.71875 4.679688 C 13.09375 4.492188 13.398438 4.601562 13.800781 4.679688 Z M 13.199219 5.160156 C 12.96875 5.355469 12.851562 5.460938 12.796875 5.761719 C 12.796875 5.855469 12.796875 5.949219 12.796875 6.042969 C 12.796875 6.148438 12.796875 6.25 12.796875 6.355469 C 12.800781 6.523438 12.800781 6.523438 12.800781 6.691406 C 12.804688 6.800781 12.804688 6.914062 12.804688 7.03125 C 12.820312 7.863281 12.894531 8.667969 13.027344 9.488281 C 13.078125 9.839844 13.078125 9.839844 13.078125 10.320312 C 12.570312 10.148438 12.464844 9.816406 12.203125 9.363281 C 11.953125 9.0625 11.785156 9.035156 11.398438 9 C 11.242188 9.203125 11.242188 9.203125 11.160156 9.480469 C 11.320312 9.789062 11.320312 9.789062 11.519531 10.078125 C 11.519531 10.199219 11.519531 10.316406 11.519531 10.441406 C 11.136719 10.296875 11.007812 10.160156 10.746094 9.832031 C 10.476562 9.460938 10.476562 9.460938 10.109375 9.367188 C 10.019531 9.363281 9.933594 9.363281 9.839844 9.359375 C 9.691406 9.484375 9.691406 9.484375 9.691406 9.757812 C 9.726562 10.140625 9.84375 10.265625 10.078125 10.558594 C 10.164062 10.828125 10.164062 10.828125 10.199219 11.039062 C 9.722656 10.78125 9.375 10.472656 9 10.078125 C 8.820312 10.140625 8.820312 10.140625 8.640625 10.199219 C 8.476562 10.695312 8.566406 10.945312 8.789062 11.402344 C 8.953125 11.824219 8.96875 12.269531 9 12.71875 C 9.117188 12.640625 9.238281 12.5625 9.359375 12.480469 C 9.320312 12.242188 9.28125 12.003906 9.238281 11.761719 C 9.339844 11.824219 9.339844 11.824219 9.441406 11.886719 C 9.792969 12.03125 9.964844 12 10.320312 11.878906 C 10.554688 11.746094 10.554688 11.746094 10.679688 11.519531 C 10.652344 11.203125 10.652344 11.203125 10.558594 10.921875 C 10.652344 11.019531 10.742188 11.117188 10.835938 11.21875 C 11.300781 11.617188 11.75 11.570312 12.335938 11.542969 C 12.421875 11.535156 12.511719 11.527344 12.601562 11.519531 C 12.640625 11.320312 12.679688 11.125 12.71875 10.921875 C 12.839844 10.980469 12.839844 10.980469 12.960938 11.039062 C 13.007812 11.320312 13.050781 11.597656 13.078125 11.878906 C 13.351562 12.035156 13.351562 12.035156 13.679688 12.121094 C 13.960938 11.96875 13.960938 11.96875 14.160156 11.761719 C 14.121094 12.039062 14.082031 12.3125 14.039062 12.601562 C 14.160156 12.660156 14.160156 12.660156 14.28125 12.71875 C 14.332031 11.859375 14.285156 11.105469 14.054688 10.273438 C 13.726562 9.085938 13.699219 7.863281 13.652344 6.640625 C 13.640625 6.40625 13.640625 6.40625 13.628906 6.164062 C 13.625 6.023438 13.621094 5.882812 13.617188 5.738281 C 13.597656 5.625 13.578125 5.515625 13.558594 5.398438 C 13.441406 5.320312 13.324219 5.242188 13.199219 5.160156 Z M 4.898438 11.121094 C 4.378906 11.550781 3.816406 11.894531 3.238281 12.238281 C 3.128906 12.308594 3.015625 12.375 2.902344 12.441406 C 2.816406 12.496094 2.730469 12.546875 2.640625 12.601562 C 3.015625 12.992188 3.417969 13.34375 3.828125 13.695312 C 4.3125 14.128906 4.753906 14.597656 5.191406 15.078125 C 6.839844 16.945312 6.839844 16.945312 9.121094 17.761719 C 9.121094 17.523438 9.121094 17.285156 9.121094 17.039062 C 9.199219 17.039062 9.277344 17.039062 9.359375 17.039062 C 9.324219 16.972656 9.292969 16.90625 9.253906 16.835938 C 8.761719 15.828125 8.574219 14.9375 8.574219 13.816406 C 8.554688 12.863281 8.484375 12.027344 8.226562 11.109375 C 8.128906 10.652344 8.183594 10.292969 8.28125 9.839844 C 8.347656 9.820312 8.414062 9.800781 8.480469 9.777344 C 9.023438 9.617188 9.023438 9.617188 9.398438 9.226562 C 9.425781 9.152344 9.453125 9.078125 9.480469 9 C 9.820312 8.886719 9.984375 8.875 10.328125 8.894531 C 10.484375 8.890625 10.640625 8.886719 10.800781 8.878906 C 10.878906 8.761719 10.957031 8.640625 11.039062 8.519531 C 11.542969 8.488281 11.886719 8.480469 12.359375 8.640625 C 12.300781 8.285156 12.300781 8.285156 12.238281 7.921875 C 9.503906 7.726562 6.882812 9.398438 4.898438 11.121094 Z M 14.28125 8.160156 C 14.3125 8.46875 14.34375 8.78125 14.378906 9.089844 C 14.386719 9.1875 14.398438 9.285156 14.410156 9.386719 C 14.464844 9.890625 14.527344 10.394531 14.621094 10.898438 C 14.824219 12.035156 14.90625 13.109375 14.859375 14.265625 C 14.851562 14.386719 14.847656 14.507812 14.84375 14.632812 C 14.808594 15.238281 14.738281 15.75 14.519531 16.320312 C 14.5 16.648438 14.5 16.648438 14.519531 16.921875 C 14.640625 16.960938 14.757812 17 14.878906 17.039062 C 15.023438 17.40625 15.023438 17.40625 15.121094 17.761719 C 16.722656 17.035156 18.015625 15.898438 19.078125 14.503906 C 19.492188 13.972656 19.949219 13.578125 20.484375 13.175781 C 20.757812 12.960938 21 12.730469 21.238281 12.480469 C 21.148438 12.449219 21.058594 12.417969 20.96875 12.386719 C 20.136719 12.078125 19.539062 11.714844 18.90625 11.097656 C 18.179688 10.390625 17.417969 9.773438 16.574219 9.210938 C 16.488281 9.148438 16.398438 9.085938 16.304688 9.023438 C 15.660156 8.589844 15.035156 8.34375 14.28125 8.160156 Z M 9.121094 13.441406 C 9.433594 14.21875 10.25 14.675781 10.925781 15.121094 C 11.503906 15.316406 12.035156 15.371094 12.609375 15.140625 C 13.257812 14.761719 13.769531 14.226562 14.28125 13.679688 C 14.097656 13.277344 13.976562 13.128906 13.558594 12.960938 C 13.558594 12.878906 13.558594 12.800781 13.558594 12.71875 C 12.960938 12.238281 12.335938 11.878906 11.554688 11.9375 C 10.574219 12.160156 9.828125 12.753906 9.121094 13.441406 Z M 9.121094 14.398438 C 9.136719 15.382812 9.476562 16.027344 10.078125 16.800781 C 10.652344 17.183594 11.265625 17.078125 11.941406 17.078125 C 12.148438 17.082031 12.148438 17.082031 12.359375 17.082031 C 12.558594 17.082031 12.558594 17.082031 12.761719 17.082031 C 12.882812 17.082031 13.003906 17.085938 13.128906 17.085938 C 13.441406 17.066406 13.441406 17.066406 13.65625 16.878906 C 13.863281 16.59375 13.921875 16.316406 14.003906 15.976562 C 14.046875 15.789062 14.046875 15.789062 14.09375 15.601562 C 14.15625 15.269531 14.171875 14.976562 14.160156 14.640625 C 14.042969 14.71875 13.921875 14.796875 13.800781 14.878906 C 13.859375 15.296875 13.859375 15.296875 13.921875 15.71875 C 13.851562 15.65625 13.78125 15.597656 13.710938 15.53125 C 13.460938 15.335938 13.460938 15.335938 13.222656 15.375 C 13.136719 15.410156 13.050781 15.445312 12.960938 15.480469 C 12.816406 15.53125 12.671875 15.582031 12.523438 15.636719 C 12.113281 15.800781 12.113281 15.800781 11.949219 16.101562 C 11.925781 16.175781 11.902344 16.246094 11.878906 16.320312 C 11.859375 16.25 11.835938 16.175781 11.8125 16.101562 C 11.550781 15.707031 11.242188 15.625 10.800781 15.480469 C 10.503906 15.511719 10.34375 15.589844 10.078125 15.71875 C 10.089844 15.628906 10.101562 15.539062 10.109375 15.445312 C 10.113281 15.109375 10.113281 15.109375 9.871094 14.902344 C 9.78125 14.84375 9.691406 14.785156 9.601562 14.722656 C 9.511719 14.660156 9.421875 14.601562 9.328125 14.535156 C 9.261719 14.492188 9.191406 14.445312 9.121094 14.398438 Z M 9.960938 17.761719 C 9.960938 17.839844 9.960938 17.917969 9.960938 18 C 10.503906 18.003906 11.046875 18.003906 11.585938 18.007812 C 11.742188 18.007812 11.894531 18.007812 12.050781 18.011719 C 12.199219 18.011719 12.347656 18.011719 12.503906 18.011719 C 12.640625 18.011719 12.777344 18.011719 12.917969 18.011719 C 13.339844 18 13.742188 17.960938 14.160156 17.878906 C 14.199219 17.800781 14.238281 17.722656 14.28125 17.640625 C 13.78125 17.636719 13.28125 17.636719 12.78125 17.632812 C 12.613281 17.632812 12.441406 17.632812 12.273438 17.632812 C 12.027344 17.628906 11.78125 17.628906 11.539062 17.628906 C 11.390625 17.628906 11.242188 17.628906 11.09375 17.625 C 10.703125 17.640625 10.339844 17.6875 9.960938 17.761719 Z M 9.960938 17.761719 "/>
<path style=" stroke:none;fill-rule:nonzero;fill:rgb(0.784314%,0.784314%,0.784314%);fill-opacity:1;" d="M 12.359375 12.121094 C 12.761719 12.335938 13.019531 12.617188 13.246094 13.011719 C 13.378906 13.570312 13.390625 13.902344 13.125 14.421875 C 12.699219 14.925781 12.34375 15.09375 11.691406 15.171875 C 11.195312 15.109375 11.023438 15 10.679688 14.640625 C 10.339844 14.109375 10.25 13.707031 10.320312 13.078125 C 10.488281 12.667969 10.632812 12.511719 11.003906 12.261719 C 11.476562 12.09375 11.863281 12.015625 12.359375 12.121094 Z M 10.679688 13.078125 C 10.582031 13.519531 10.59375 13.769531 10.816406 14.160156 C 11.105469 14.535156 11.292969 14.734375 11.761719 14.851562 C 12.25 14.726562 12.496094 14.523438 12.839844 14.160156 C 12.984375 13.800781 12.976562 13.625 12.886719 13.253906 C 12.675781 12.882812 12.480469 12.703125 12.121094 12.480469 C 11.453125 12.351562 11.121094 12.585938 10.679688 13.078125 Z M 10.679688 13.078125 "/>
<path style=" stroke:none;fill-rule:nonzero;fill:rgb(0.784314%,0.784314%,0.784314%);fill-opacity:1;" d="M 12.121094 12.960938 C 12.34375 13.15625 12.34375 13.15625 12.480469 13.441406 C 12.472656 13.816406 12.472656 13.816406 12.359375 14.160156 C 12.148438 14.339844 12.148438 14.339844 11.878906 14.398438 C 11.363281 14.242188 11.363281 14.242188 11.160156 14.039062 C 11.105469 13.40625 11.105469 13.40625 11.300781 13.09375 C 11.601562 12.910156 11.773438 12.898438 12.121094 12.960938 Z M 11.519531 13.320312 C 11.480469 13.476562 11.441406 13.636719 11.398438 13.800781 C 11.636719 13.917969 11.636719 13.917969 11.878906 14.039062 C 11.960938 13.882812 12.039062 13.722656 12.121094 13.558594 C 12.039062 13.480469 11.960938 13.402344 11.878906 13.320312 C 11.761719 13.320312 11.640625 13.320312 11.519531 13.320312 Z M 11.519531 13.320312 "/>
</g>
</svg>
