<?xml version="1.0" encoding="UTF-8"?>
<svg xmlns="http://www.w3.org/2000/svg" xmlns:xlink="http://www.w3.org/1999/xlink" width="24px" height="24px" viewBox="0 0 24 24" version="1.1">
<g id="surface1">
<path style=" stroke:none;fill-rule:nonzero;fill:rgb(0.392157%,0.392157%,0.392157%);fill-opacity:1;" d="M 19.441406 4.199219 C 19.582031 4.308594 19.722656 4.417969 19.859375 4.53125 C 19.976562 4.621094 19.976562 4.621094 20.097656 4.714844 C 20.28125 4.921875 20.28125 4.921875 20.28125 5.398438 C 20.109375 5.632812 20.109375 5.632812 19.871094 5.875 C 19.746094 6.007812 19.746094 6.007812 19.613281 6.144531 C 19.523438 6.234375 19.433594 6.324219 19.34375 6.421875 C 19.167969 6.601562 18.992188 6.78125 18.816406 6.964844 C 18.738281 7.042969 18.65625 7.125 18.578125 7.207031 C 18.367188 7.433594 18.179688 7.667969 18 7.921875 C 18.117188 8.039062 18.117188 8.039062 18.238281 8.160156 C 18.21875 8.429688 18.21875 8.429688 18.164062 8.746094 C 18.117188 9.0625 18.117188 9.0625 18.121094 9.359375 C 18.332031 9.664062 18.332031 9.664062 18.601562 9.839844 C 18.601562 9.917969 18.601562 10 18.601562 10.078125 C 19.132812 10.296875 19.132812 10.296875 19.679688 10.199219 C 19.824219 9.960938 19.824219 9.960938 19.921875 9.71875 C 20.039062 9.757812 20.15625 9.800781 20.28125 9.839844 C 20.199219 10.277344 20.121094 10.710938 20.039062 11.160156 C 20.65625 11.4375 20.65625 11.4375 21.238281 11.28125 C 21.464844 10.925781 21.464844 10.925781 21.601562 10.558594 C 21.679688 10.558594 21.757812 10.558594 21.839844 10.558594 C 22.03125 11.039062 21.875 11.40625 21.71875 11.878906 C 21.855469 11.859375 21.992188 11.835938 22.132812 11.8125 C 22.273438 11.796875 22.414062 11.777344 22.558594 11.761719 C 22.679688 11.878906 22.679688 11.878906 22.761719 12.316406 C 22.761719 12.574219 22.761719 12.574219 22.679688 12.839844 C 22.191406 13.308594 21.605469 13.628906 21 13.921875 C 21.050781 14.050781 21.050781 14.050781 21.105469 14.183594 C 21.148438 14.292969 21.195312 14.40625 21.238281 14.519531 C 21.285156 14.625 21.328125 14.726562 21.375 14.835938 C 21.480469 15.121094 21.480469 15.121094 21.480469 15.480469 C 20.953125 15.417969 20.660156 15.097656 20.28125 14.761719 C 19.820312 14.945312 19.519531 15.226562 19.199219 15.601562 C 19.167969 16.058594 19.167969 16.058594 19.320312 16.363281 C 19.457031 16.726562 19.457031 17.015625 19.441406 17.398438 C 19.027344 17.214844 18.707031 16.96875 18.359375 16.679688 C 17.941406 16.867188 17.605469 17.074219 17.28125 17.398438 C 17.234375 17.792969 17.234375 17.792969 17.300781 18.210938 C 17.320312 18.351562 17.335938 18.492188 17.351562 18.636719 C 17.367188 18.742188 17.382812 18.851562 17.398438 18.960938 C 17.242188 18.960938 17.082031 18.960938 16.921875 18.960938 C 16.683594 18.542969 16.683594 18.542969 16.441406 18.121094 C 16.203125 18.199219 15.964844 18.277344 15.71875 18.359375 C 15.710938 18.4375 15.707031 18.511719 15.699219 18.59375 C 15.6875 18.691406 15.679688 18.789062 15.667969 18.890625 C 15.65625 18.992188 15.648438 19.089844 15.636719 19.191406 C 15.601562 19.441406 15.601562 19.441406 15.480469 19.558594 C 15.238281 19.566406 15 19.566406 14.761719 19.558594 C 14.761719 19.28125 14.761719 19.003906 14.761719 18.71875 C 13.097656 18.757812 11.433594 18.800781 9.71875 18.839844 C 9.640625 19.117188 9.5625 19.394531 9.480469 19.679688 C 9.28125 19.679688 9.085938 19.679688 8.878906 19.679688 C 8.761719 18.886719 8.761719 18.886719 8.761719 18.480469 C 8.601562 18.441406 8.441406 18.402344 8.28125 18.359375 C 8.25 18.429688 8.214844 18.503906 8.183594 18.574219 C 8.035156 18.851562 7.882812 19.015625 7.65625 19.230469 C 7.359375 19.519531 7.078125 19.808594 6.808594 20.121094 C 6.4375 20.554688 6.054688 20.980469 5.671875 21.40625 C 5.613281 21.46875 5.558594 21.53125 5.5 21.59375 C 5.238281 21.882812 5.003906 22.105469 4.679688 22.320312 C 4.402344 22.082031 4.125 21.84375 3.839844 21.601562 C 4.054688 21.171875 4.234375 20.925781 4.550781 20.578125 C 4.648438 20.476562 4.742188 20.371094 4.84375 20.261719 C 5.0625 20.023438 5.285156 19.785156 5.507812 19.546875 C 5.566406 19.484375 5.625 19.421875 5.683594 19.355469 C 5.851562 19.179688 6.015625 19 6.183594 18.824219 C 6.480469 18.480469 6.71875 18.140625 6.960938 17.761719 C 6.683594 17.5625 6.40625 17.363281 6.121094 17.160156 C 5.660156 17.339844 5.460938 17.621094 5.160156 18 C 5.082031 18 5 18 4.921875 18 C 4.882812 17.367188 4.960938 16.988281 5.28125 16.441406 C 5.003906 16.125 4.726562 15.804688 4.441406 15.480469 C 4 15.589844 3.894531 15.625 3.585938 15.90625 C 3.238281 16.199219 3.238281 16.199219 3 16.199219 C 3.054688 15.566406 3.128906 14.996094 3.359375 14.398438 C 2.695312 13.871094 2.023438 13.382812 1.304688 12.933594 C 1.078125 12.71875 1.078125 12.71875 1.046875 12.394531 C 1.058594 12.304688 1.070312 12.214844 1.078125 12.121094 C 1.152344 12.097656 1.226562 12.074219 1.300781 12.050781 C 1.441406 12.003906 1.441406 12.003906 1.589844 11.953125 C 1.683594 11.925781 1.78125 11.894531 1.875 11.863281 C 2.144531 11.765625 2.390625 11.652344 2.640625 11.519531 C 2.601562 11.480469 2.5625 11.441406 2.519531 11.398438 C 2.515625 11.121094 2.515625 10.839844 2.519531 10.558594 C 2.597656 10.558594 2.679688 10.558594 2.761719 10.558594 C 2.925781 10.753906 3.085938 10.957031 3.238281 11.160156 C 3.757812 10.988281 4.082031 10.734375 4.476562 10.363281 C 4.582031 10.265625 4.6875 10.167969 4.796875 10.066406 C 4.878906 9.992188 4.957031 9.917969 5.039062 9.839844 C 4.976562 9.714844 4.917969 9.585938 4.851562 9.457031 C 4.679688 9.0625 4.660156 8.820312 4.800781 8.398438 C 5.117188 8.710938 5.394531 8.988281 5.640625 9.359375 C 6.121094 9.195312 6.453125 8.964844 6.839844 8.640625 C 6.957031 8.5625 7.078125 8.480469 7.199219 8.398438 C 7.179688 8.324219 7.164062 8.25 7.144531 8.171875 C 7.121094 8.074219 7.097656 7.976562 7.074219 7.875 C 7.035156 7.730469 7.035156 7.730469 7 7.578125 C 6.960938 7.320312 6.960938 7.320312 7.078125 7.078125 C 7.441406 7.199219 7.441406 7.199219 7.679688 7.566406 C 7.757812 7.683594 7.839844 7.800781 7.921875 7.921875 C 8.269531 7.921875 8.453125 7.871094 8.773438 7.746094 C 8.859375 7.714844 8.945312 7.683594 9.03125 7.652344 C 9.238281 7.574219 9.238281 7.574219 9.359375 7.441406 C 9.386719 7.21875 9.410156 6.996094 9.425781 6.773438 C 9.441406 6.589844 9.441406 6.589844 9.457031 6.40625 C 9.464844 6.3125 9.472656 6.214844 9.480469 6.121094 C 9.839844 6.238281 9.839844 6.238281 9.953125 6.460938 C 9.984375 6.550781 10.011719 6.636719 10.042969 6.726562 C 10.074219 6.816406 10.101562 6.902344 10.132812 6.996094 C 10.15625 7.0625 10.175781 7.128906 10.199219 7.199219 C 10.433594 7.171875 10.433594 7.171875 10.671875 7.140625 C 11.238281 7.078125 11.789062 7.070312 12.359375 7.078125 C 12.355469 6.910156 12.355469 6.910156 12.347656 6.738281 C 12.34375 6.589844 12.339844 6.4375 12.335938 6.285156 C 12.332031 6.0625 12.332031 6.0625 12.324219 5.835938 C 12.363281 5.359375 12.460938 5.078125 12.71875 4.679688 C 13.160156 4.542969 13.417969 4.496094 13.84375 4.6875 C 14.261719 5.183594 14.171875 5.90625 14.167969 6.523438 C 14.167969 6.675781 14.164062 6.824219 14.164062 6.976562 C 14.164062 7.089844 14.160156 7.203125 14.160156 7.320312 C 14.476562 7.359375 14.792969 7.398438 15.121094 7.441406 C 15.277344 7.164062 15.4375 6.886719 15.601562 6.601562 C 15.777344 6.660156 15.777344 6.660156 15.960938 6.71875 C 15.960938 7.117188 15.960938 7.511719 15.960938 7.921875 C 16.097656 7.78125 16.234375 7.644531 16.375 7.503906 C 16.5 7.378906 16.628906 7.253906 16.757812 7.125 C 17.191406 6.699219 17.601562 6.253906 18.003906 5.792969 C 18.472656 5.253906 18.957031 4.726562 19.441406 4.199219 Z M 13.199219 5.160156 C 12.96875 5.355469 12.851562 5.460938 12.796875 5.761719 C 12.796875 5.855469 12.796875 5.949219 12.796875 6.042969 C 12.796875 6.148438 12.796875 6.25 12.796875 6.355469 C 12.800781 6.523438 12.800781 6.523438 12.800781 6.691406 C 12.804688 6.800781 12.804688 6.914062 12.804688 7.03125 C 12.820312 7.863281 12.894531 8.667969 13.027344 9.488281 C 13.078125 9.839844 13.078125 9.839844 13.078125 10.320312 C 12.664062 10.179688 12.597656 10.074219 12.351562 9.726562 C 12.164062 9.460938 11.992188 9.230469 11.761719 9 C 11.507812 9.039062 11.507812 9.039062 11.28125 9.121094 C 11.28125 9.585938 11.320312 9.695312 11.519531 10.078125 C 11.519531 10.199219 11.519531 10.316406 11.519531 10.441406 C 11.136719 10.296875 11.007812 10.160156 10.746094 9.832031 C 10.476562 9.457031 10.476562 9.457031 10.101562 9.375 C 10.015625 9.371094 9.929688 9.363281 9.839844 9.359375 C 9.746094 9.632812 9.746094 9.632812 9.71875 9.960938 C 9.878906 10.269531 9.878906 10.269531 10.078125 10.558594 C 10.164062 10.835938 10.164062 10.835938 10.199219 11.039062 C 10.042969 11.039062 9.882812 11.039062 9.71875 11.039062 C 9.691406 10.96875 9.660156 10.902344 9.628906 10.828125 C 9.460938 10.523438 9.253906 10.316406 9 10.078125 C 8.820312 10.140625 8.820312 10.140625 8.640625 10.199219 C 8.476562 10.695312 8.566406 10.949219 8.789062 11.410156 C 8.945312 11.796875 8.964844 12.1875 9 12.601562 C 9.179688 12.539062 9.179688 12.539062 9.359375 12.480469 C 9.320312 12.242188 9.28125 12.003906 9.238281 11.761719 C 9.339844 11.824219 9.339844 11.824219 9.441406 11.886719 C 9.792969 12.03125 9.964844 12 10.320312 11.878906 C 10.554688 11.746094 10.554688 11.746094 10.679688 11.519531 C 10.652344 11.203125 10.652344 11.203125 10.558594 10.921875 C 10.652344 11.019531 10.742188 11.117188 10.835938 11.21875 C 11.300781 11.617188 11.75 11.570312 12.335938 11.542969 C 12.421875 11.535156 12.511719 11.527344 12.601562 11.519531 C 12.640625 11.320312 12.679688 11.125 12.71875 10.921875 C 12.878906 11 13.035156 11.078125 13.199219 11.160156 C 13.515625 10.921875 13.714844 10.765625 13.921875 10.441406 C 13.941406 10.167969 13.941406 10.167969 13.886719 9.871094 C 13.820312 9.308594 13.777344 8.75 13.75 8.1875 C 13.738281 8.023438 13.730469 7.859375 13.722656 7.691406 C 13.707031 7.441406 13.695312 7.1875 13.683594 6.933594 C 13.671875 6.6875 13.65625 6.4375 13.644531 6.191406 C 13.636719 6.042969 13.628906 5.898438 13.621094 5.746094 C 13.589844 5.574219 13.589844 5.574219 13.558594 5.398438 C 13.441406 5.320312 13.324219 5.242188 13.199219 5.160156 Z M 9.359375 8.398438 C 9.257812 8.429688 9.15625 8.460938 9.054688 8.492188 C 7.566406 9.015625 6.179688 9.992188 5.015625 11.039062 C 4.296875 11.671875 3.472656 12.132812 2.640625 12.601562 C 3.019531 12.988281 3.417969 13.34375 3.828125 13.695312 C 4.3125 14.128906 4.753906 14.597656 5.191406 15.078125 C 6.296875 16.355469 6.296875 16.355469 7.679688 17.28125 C 7.867188 17.101562 8.046875 16.917969 8.226562 16.734375 C 8.328125 16.632812 8.429688 16.527344 8.535156 16.425781 C 8.835938 15.960938 8.75 15.777344 8.640625 15.238281 C 8.628906 15.019531 8.621094 14.800781 8.613281 14.582031 C 8.609375 14.402344 8.609375 14.402344 8.605469 14.222656 C 8.601562 14.097656 8.597656 13.972656 8.59375 13.84375 C 8.566406 12.890625 8.484375 12.03125 8.226562 11.109375 C 8.128906 10.652344 8.183594 10.292969 8.28125 9.839844 C 8.347656 9.820312 8.414062 9.800781 8.480469 9.777344 C 9.023438 9.617188 9.023438 9.617188 9.398438 9.226562 C 9.425781 9.152344 9.453125 9.078125 9.480469 9 C 9.820312 8.886719 9.984375 8.875 10.328125 8.894531 C 10.484375 8.890625 10.640625 8.886719 10.800781 8.878906 C 10.878906 8.761719 10.957031 8.640625 11.039062 8.519531 C 11.542969 8.488281 11.886719 8.480469 12.359375 8.640625 C 12.300781 8.285156 12.300781 8.285156 12.238281 7.921875 C 11.222656 7.847656 10.324219 8.101562 9.359375 8.398438 Z M 14.398438 8.160156 C 14.242188 8.476562 14.292969 8.667969 14.332031 9.015625 C 14.34375 9.125 14.355469 9.234375 14.371094 9.347656 C 14.378906 9.429688 14.390625 9.511719 14.398438 9.601562 C 14.785156 9.4375 14.976562 9.273438 15.210938 8.925781 C 15.34375 8.722656 15.34375 8.722656 15.480469 8.519531 C 15.125 8.402344 14.765625 8.28125 14.398438 8.160156 Z M 17.398438 8.398438 C 17.398438 8.761719 17.398438 8.761719 17.398438 8.761719 Z M 15.636719 10.171875 C 15.132812 10.6875 14.714844 11.128906 14.671875 11.875 C 14.691406 12.382812 14.765625 12.882812 14.84375 13.386719 C 14.898438 13.84375 14.875 14.289062 14.84375 14.746094 C 14.832031 14.894531 14.824219 15.042969 14.8125 15.195312 C 14.761719 15.597656 14.65625 15.9375 14.519531 16.320312 C 14.5 16.648438 14.5 16.648438 14.519531 16.921875 C 14.640625 16.960938 14.757812 17 14.878906 17.039062 C 14.917969 17.277344 14.960938 17.515625 15 17.761719 C 15.585938 17.597656 16.042969 17.335938 16.53125 16.980469 C 16.601562 16.925781 16.675781 16.875 16.753906 16.820312 C 17.648438 16.15625 18.402344 15.390625 19.078125 14.503906 C 19.492188 13.972656 19.949219 13.578125 20.484375 13.175781 C 20.757812 12.960938 21 12.730469 21.238281 12.480469 C 21.148438 12.449219 21.058594 12.417969 20.96875 12.386719 C 19.984375 12.019531 19.34375 11.53125 18.601562 10.800781 C 17.171875 9.355469 17.171875 9.355469 15.636719 10.171875 Z M 9.121094 13.441406 C 9.285156 13.828125 9.445312 14.019531 9.796875 14.25 C 9.871094 14.300781 9.945312 14.351562 10.023438 14.40625 C 10.082031 14.445312 10.140625 14.480469 10.199219 14.519531 C 10.378906 14.152344 10.441406 13.914062 10.441406 13.5 C 10.441406 13.074219 10.453125 12.839844 10.679688 12.480469 C 11.214844 12.226562 11.777344 12.179688 12.359375 12.121094 C 12.359375 12.082031 12.359375 12.039062 12.359375 12 C 10.933594 11.867188 10.125 12.492188 9.121094 13.441406 Z M 14.160156 12 C 14.121094 12.199219 14.082031 12.394531 14.039062 12.601562 C 14.160156 12.660156 14.160156 12.660156 14.28125 12.71875 C 14.28125 12.480469 14.28125 12.246094 14.28125 12 C 14.242188 12 14.199219 12 14.160156 12 Z M 11.011719 12.734375 C 10.644531 13.050781 10.644531 13.050781 10.636719 13.476562 C 10.648438 13.582031 10.664062 13.691406 10.679688 13.800781 C 11.210938 13.421875 11.519531 13.011719 11.878906 12.480469 C 11.390625 12.4375 11.390625 12.4375 11.011719 12.734375 Z M 13.441406 12.71875 C 13.175781 12.929688 13.175781 12.929688 13.195312 13.195312 C 13.199219 13.285156 13.207031 13.375 13.214844 13.46875 C 13.226562 14.035156 13.105469 14.332031 12.71875 14.761719 C 12.265625 15.015625 11.792969 15.058594 11.28125 15.121094 C 11.28125 15.160156 11.28125 15.199219 11.28125 15.238281 C 12 15.316406 12.484375 15.253906 13.082031 14.835938 C 13.511719 14.480469 13.898438 14.089844 14.28125 13.679688 C 14.09375 13.269531 13.972656 13.144531 13.558594 12.960938 C 13.519531 12.878906 13.480469 12.800781 13.441406 12.71875 Z M 12.71875 13.558594 C 12.546875 13.734375 12.382812 13.914062 12.226562 14.101562 C 12.136719 14.199219 12.050781 14.300781 11.960938 14.402344 C 11.894531 14.480469 11.828125 14.558594 11.761719 14.640625 C 11.878906 14.679688 11.996094 14.71875 12.121094 14.761719 C 12.667969 14.394531 12.667969 14.394531 12.945312 13.824219 C 12.949219 13.734375 12.953125 13.648438 12.960938 13.558594 C 12.878906 13.558594 12.800781 13.558594 12.71875 13.558594 Z M 9.121094 14.398438 C 9.101562 14.75 9.101562 14.75 9.121094 15.121094 C 9.199219 15.199219 9.277344 15.277344 9.359375 15.359375 C 9.480469 15.203125 9.597656 15.042969 9.71875 14.878906 C 9.523438 14.722656 9.324219 14.5625 9.121094 14.398438 Z M 14.039062 14.640625 C 13.960938 14.71875 13.882812 14.796875 13.800781 14.878906 C 13.839844 15.3125 13.839844 15.3125 13.921875 15.71875 C 13.851562 15.65625 13.78125 15.597656 13.710938 15.53125 C 13.460938 15.335938 13.460938 15.335938 13.222656 15.375 C 13.136719 15.410156 13.050781 15.445312 12.960938 15.480469 C 12.816406 15.53125 12.671875 15.582031 12.523438 15.636719 C 12.113281 15.800781 12.113281 15.800781 11.949219 16.101562 C 11.925781 16.175781 11.902344 16.246094 11.878906 16.320312 C 11.859375 16.246094 11.835938 16.171875 11.8125 16.09375 C 11.554688 15.714844 11.234375 15.695312 10.800781 15.601562 C 10.675781 15.726562 10.554688 15.859375 10.433594 15.988281 C 10.363281 16.0625 10.296875 16.136719 10.226562 16.210938 C 10.050781 16.429688 10.050781 16.429688 10.101562 16.699219 C 10.183594 16.941406 10.183594 16.941406 10.441406 17.039062 C 10.9375 17.074219 11.433594 17.066406 11.933594 17.070312 C 12.140625 17.074219 12.140625 17.074219 12.355469 17.078125 C 12.488281 17.078125 12.621094 17.078125 12.757812 17.078125 C 12.878906 17.082031 13 17.082031 13.128906 17.082031 C 13.441406 17.066406 13.441406 17.066406 13.65625 16.878906 C 13.863281 16.59375 13.921875 16.316406 14.003906 15.976562 C 14.046875 15.789062 14.046875 15.789062 14.09375 15.601562 C 14.15625 15.269531 14.171875 14.976562 14.160156 14.640625 C 14.121094 14.640625 14.082031 14.640625 14.039062 14.640625 Z M 9.960938 17.761719 C 9.960938 17.839844 9.960938 17.917969 9.960938 18 C 10.503906 18.003906 11.046875 18.003906 11.585938 18.007812 C 11.742188 18.007812 11.894531 18.007812 12.050781 18.011719 C 12.199219 18.011719 12.347656 18.011719 12.503906 18.011719 C 12.640625 18.011719 12.777344 18.011719 12.917969 18.011719 C 13.339844 18 13.742188 17.960938 14.160156 17.878906 C 14.199219 17.800781 14.238281 17.722656 14.28125 17.640625 C 13.78125 17.636719 13.28125 17.636719 12.78125 17.632812 C 12.613281 17.632812 12.441406 17.632812 12.273438 17.632812 C 12.027344 17.628906 11.78125 17.628906 11.539062 17.628906 C 11.390625 17.628906 11.242188 17.628906 11.09375 17.625 C 10.703125 17.640625 10.339844 17.6875 9.960938 17.761719 Z M 9.960938 17.761719 "/>
</g>
</svg>
