<?xml version="1.0" encoding="UTF-8"?>
<svg xmlns="http://www.w3.org/2000/svg" xmlns:xlink="http://www.w3.org/1999/xlink" width="24px" height="24px" viewBox="0 0 24 24" version="1.1">
<g id="surface1">
<path style=" stroke:none;fill-rule:nonzero;fill:rgb(59.215689%,59.215689%,59.215689%);fill-opacity:1;" d="M 9.691406 10.863281 C 7.953125 9.824219 7.125 7.753906 7.664062 5.804688 C 8.203125 3.851562 9.976562 2.5 12 2.5 C 14.023438 2.5 15.796875 3.851562 16.335938 5.804688 C 16.875 7.753906 16.046875 9.824219 14.308594 10.863281 C 17.402344 11.867188 19.5 14.746094 19.5 18 C 19.5 19.507812 16.097656 20.5 12 20.5 C 7.855469 20.5 4.5 19.535156 4.5 18 C 4.5 14.746094 6.597656 11.867188 9.691406 10.863281 Z M 12 10.5 C 13.933594 10.5 15.5 8.933594 15.5 7 C 15.5 5.066406 13.933594 3.5 12 3.5 C 10.066406 3.5 8.5 5.066406 8.5 7 C 8.5 8.933594 10.066406 10.5 12 10.5 Z M 12 19.5 C 15.5 19.5 18.5 18.625 18.5 18 C 18.5 14.410156 15.589844 11.5 12 11.5 C 8.410156 11.5 5.5 14.410156 5.5 18 C 5.5 18.648438 8.453125 19.5 12 19.5 Z M 12 19.5 "/>
</g>
</svg>
